<?xml version="1.0" encoding="UTF-8" standalone="no" ?>
<!DOCTYPE svg PUBLIC "-//W3C//DTD SVG 1.1//EN" "http://www.w3.org/Graphics/SVG/1.1/DTD/svg11.dtd">
<svg xmlns="http://www.w3.org/2000/svg" xmlns:xlink="http://www.w3.org/1999/xlink" version="1.1" width="492.93680000000006" height="142.15496000000002" xml:space="preserve">
<desc>Created with Fabric.js 1.6.0-rc.1</desc>
<defs></defs>
<g style="stroke: none; stroke-width: 1; stroke-dasharray: none; stroke-linecap: butt; stroke-linejoin: miter; stroke-miterlimit: 10; fill: none; fill-rule: nonzero; opacity: 1;" transform="translate(10 10) scale(0.25 0.25)" >
  <path d="M 118.23 308.767 l -3.02 -31.347 c 0.355 -11.086 2.163 -21.65 5.183 -31.347 l -2.121 -21.943 c -2.832 -7.461 -4.378 -15.548 -4.378 -24.001 c 0 -26.206 14.838 -48.922 36.571 -60.249 l 21.943 -25.088 c 5.611 -5.193 13.103 -8.359 21.337 -8.359 c 0.157 0 0.303 0.01 0.449 0.01 c 3.594 -13.406 15.83 -23.27 30.365 -23.27 c 17.366 0 31.441 14.075 31.441 31.441 c 0 -17.366 14.075 -31.441 31.441 -31.441 c 14.535 0 26.77 9.864 30.365 23.27 c 0.146 0 0.293 -0.01 0.449 -0.01 c 16.394 0 29.863 12.57 31.305 28.599 c 28.066 8.338 48.546 34.314 48.546 65.097 c 0 13.134 -3.741 25.401 -10.209 35.798 c 5.684 13.343 8.955 28.881 8.955 45.464 c 0 40.97 -19.863 75.525 -47.041 86.455 c 0.324 2.1 0.512 4.253 0.512 6.457 c 0 19.487 -13.646 35.767 -31.89 39.863 c -2.518 14.848 -15.433 26.154 -30.992 26.154 c -17.366 0 -31.441 -14.075 -31.441 -31.441 c 0 17.366 -14.075 31.441 -31.441 31.441 c -15.559 0 -28.473 -11.306 -30.992 -26.154 c -18.244 -4.096 -31.89 -20.375 -31.89 -39.863 c 0 -2.205 0.188 -4.357 0.512 -6.457 c -15.391 -6.186 -28.442 -19.958 -36.854 -38.181 L 118.23 308.767 z" style="stroke: none; stroke-width: 1; stroke-dasharray: none; stroke-linecap: butt; stroke-linejoin: miter; stroke-miterlimit: 10; fill: #ffb64d; fill-rule: nonzero; opacity: 1;" transform=" matrix(1 0 0 1 0 0) " stroke-linecap="round" />
  <rect x="187.56" y="193.31" rx="0" ry="0" width="136.88" height="136.88" style="stroke: none; stroke-width: 1; stroke-dasharray: none; stroke-linecap: butt; stroke-linejoin: miter; stroke-miterlimit: 10; fill: #4dd0e2; fill-rule: nonzero; opacity: 1;" transform=" matrix(1 0 0 1 0 0) "/>
  <rect x="219.95" y="225.7" rx="0" ry="0" width="72.1" height="72.1" style="stroke: none; stroke-width: 1; stroke-dasharray: none; stroke-linecap: butt; stroke-linejoin: miter; stroke-miterlimit: 10; fill: #FFFFFF; fill-rule: nonzero; opacity: 1;" transform=" matrix(1 0 0 1 0 0) "/>
  <path d="M 358.129 372.637 c 14.753 -7.654 27.273 -21.537 35.65 -39.687 l -14.23 -6.568 c -7.699 16.68 -19.298 28.824 -32.66 34.193 l -5.771 2.32 l 0.949 6.147 c 0.283 1.835 0.42 3.556 0.42 5.263 c 0 15.315 -10.838 28.863 -25.77 32.216 l -5.13 1.152 l -0.88 5.184 c -1.928 11.372 -11.713 19.626 -23.265 19.626 c -13.015 0 -23.604 -10.589 -23.604 -23.604 v -25.924 h -15.673 v 25.924 c 0 13.015 -10.589 23.604 -23.604 23.604 c -11.552 0 -21.337 -8.255 -23.266 -19.627 l -0.88 -5.184 l -5.13 -1.153 c -14.933 -3.352 -25.77 -16.901 -25.77 -32.216 c 0 -1.706 0.138 -3.428 0.42 -5.263 l 0.949 -6.147 l -5.771 -2.32 c -13.363 -5.371 -24.962 -17.514 -32.66 -34.193 l -14.23 6.568 c 8.378 18.15 20.897 32.033 35.65 39.687 c -0.02 0.56 -0.03 1.115 -0.03 1.667 c 0 21.259 13.415 39.59 33.183 46.169 c 4.994 16.311 20.048 27.685 37.536 27.685 c 12.845 0 24.27 -6.199 31.441 -15.76 c 7.171 9.562 18.596 15.76 31.441 15.76 c 17.487 0 32.542 -11.374 37.536 -27.685 c 19.767 -6.578 33.183 -24.909 33.183 -46.169 C 358.16 373.753 358.149 373.197 358.129 372.637 z" style="stroke: none; stroke-width: 1; stroke-dasharray: none; stroke-linecap: butt; stroke-linejoin: miter; stroke-miterlimit: 10; fill: rgb(0,0,0); fill-rule: nonzero; opacity: 1;" transform=" matrix(1 0 0 1 0 0) " stroke-linecap="round" />
  <path d="M 177.731 120.544 c 4.372 -4.046 10.058 -6.274 15.963 -6.274 c 0.001 0 0.001 0 0.001 0 c 0.168 0.006 0.333 0.01 0.499 0.01 h 6.012 l 1.557 -5.808 c 2.756 -10.282 12.13 -17.462 22.795 -17.462 c 13.015 0 23.604 10.589 23.604 23.604 v 25.924 h 15.673 v -25.924 c 0 -13.015 10.589 -23.604 23.604 -23.604 c 10.665 0 20.039 7.182 22.796 17.462 l 1.557 5.808 h 6.012 c 0.165 0 0.33 -0.004 0.449 -0.01 c 12.095 0 22.417 9.428 23.5 21.464 l 0.476 5.296 l 5.097 1.514 c 23.307 6.925 40.46 27.821 42.681 52.001 l 15.609 -1.434 c -2.693 -29.305 -21.746 -53.929 -49.07 -64.01 c -3.609 -16.042 -16.769 -28.043 -33.088 -30.169 c -6.151 -14.136 -20.237 -23.595 -36.019 -23.595 c -12.845 0 -24.27 6.199 -31.441 15.761 c -7.171 -9.562 -18.596 -15.761 -31.441 -15.761 c -15.785 0 -29.873 9.462 -36.023 23.603 c -7.985 1.063 -15.461 4.556 -21.452 10.1 L 177.731 120.544 z" style="stroke: none; stroke-width: 1; stroke-dasharray: none; stroke-linecap: butt; stroke-linejoin: miter; stroke-miterlimit: 10; fill: rgb(0,0,0); fill-rule: nonzero; opacity: 1;" transform=" matrix(1 0 0 1 0 0) " stroke-linecap="round" />
  <path d="M 299.886 217.861 h -87.771 v 87.771 h 87.771 V 217.861 z M 284.212 289.959 h -56.424 v -56.424 h 56.424 V 289.959 z" style="stroke: none; stroke-width: 1; stroke-dasharray: none; stroke-linecap: butt; stroke-linejoin: miter; stroke-miterlimit: 10; fill: rgb(0,0,0); fill-rule: nonzero; opacity: 1;" transform=" matrix(1 0 0 1 0 0) " stroke-linecap="round" />
  <path d="M 493.714 365.872 v -96.288 H 332.278 V 253.91 h 161.437 v -36.729 c 10.587 -3.336 18.286 -13.245 18.286 -24.92 c 0 -14.404 -11.719 -26.122 -26.122 -26.122 s -26.122 11.719 -26.122 26.122 c 0 11.675 7.699 21.583 18.286 24.92 v 21.056 H 332.278 v -15.673 h 110.759 V 97.018 c 10.587 -3.336 18.286 -13.245 18.286 -24.92 c 0 -14.404 -11.719 -26.122 -26.122 -26.122 s -26.122 11.719 -26.122 26.122 c 0 11.675 7.699 21.583 18.286 24.92 V 206.89 h -95.086 v -21.42 h -21.42 v -18.808 h -15.673 v 18.808 H 279.51 v -18.808 h -15.673 v 18.808 h -15.673 v -18.808 H 232.49 v 18.808 h -15.673 v -18.808 h -15.673 v 18.808 h -21.42 v 21.42 h -21.42 V 83.434 c 10.587 -3.336 18.286 -13.245 18.286 -24.92 c 0 -14.404 -11.719 -26.122 -26.122 -26.122 c -14.404 0 -26.122 11.719 -26.122 26.122 c 0 11.675 7.699 21.583 18.286 24.92 v 51.872 c -22.674 13.692 -36.571 38.104 -36.571 64.823 c 0 9.225 1.645 18.237 4.888 26.782 l 14.653 -5.561 c -2.566 -6.763 -3.868 -13.902 -3.868 -21.221 c 0 -17.784 7.769 -34.278 20.898 -45.544 v 67.978 h 37.095 v 15.673 H 85.159 v -52.767 H 51.042 c -3.336 -10.587 -13.245 -18.286 -24.92 -18.286 C 11.719 167.184 0 178.902 0 193.306 c 0 14.404 11.719 26.122 26.122 26.122 c 11.675 0 21.583 -7.699 24.92 -18.286 h 18.443 v 52.767 h 110.237 v 15.673 H 51.042 c -3.336 -10.587 -13.245 -18.286 -24.92 -18.286 C 11.719 251.298 0 263.016 0 277.42 c 0 14.404 11.719 26.122 26.122 26.122 c 11.675 0 21.583 -7.699 24.92 -18.286 h 128.68 v 15.673 H 59.037 v 71.211 c -10.587 3.336 -18.286 13.245 -18.286 24.92 c 0 14.404 11.719 26.122 26.122 26.122 s 26.122 -11.719 26.122 -26.122 c 0 -11.675 -7.699 -21.583 -18.286 -24.92 v -55.537 h 105.012 v 21.42 h 21.42 v 18.808 h 15.673 v -18.808 h 15.673 v 18.808 h 15.673 v -18.808 h 15.673 v 18.808 h 15.673 v -18.808 h 15.673 v 18.808 h 15.673 v -18.808 h 21.42 v -21.42 h 95.086 v 66.351 h -57.469 v 45.611 c -10.587 3.336 -18.286 13.245 -18.286 24.92 c 0 14.404 11.719 26.122 26.122 26.122 s 26.122 -11.719 26.122 -26.122 c 0 -11.675 -7.699 -21.583 -18.286 -24.92 v -29.937 h 57.469 v -97.698 H 332.278 v -15.673 h 145.763 v 80.615 c -10.587 3.336 -18.286 13.245 -18.286 24.92 c 0 14.404 11.719 26.122 26.122 26.122 S 512 405.196 512 390.792 C 512 379.117 504.301 369.208 493.714 365.872 z M 485.878 181.812 c 5.762 0 10.449 4.687 10.449 10.449 s -4.687 10.449 -10.449 10.449 s -10.449 -4.687 -10.449 -10.449 S 480.116 181.812 485.878 181.812 z M 435.2 61.649 c 5.762 0 10.449 4.687 10.449 10.449 s -4.687 10.449 -10.449 10.449 s -10.449 -4.687 -10.449 -10.449 S 429.438 61.649 435.2 61.649 z M 150.465 48.065 c 5.762 0 10.449 4.687 10.449 10.449 s -4.687 10.449 -10.449 10.449 c -5.762 0 -10.449 -4.687 -10.449 -10.449 S 144.704 48.065 150.465 48.065 z M 26.122 203.755 c -5.762 0 -10.449 -4.687 -10.449 -10.449 c 0 -5.762 4.687 -10.449 10.449 -10.449 s 10.449 4.687 10.449 10.449 C 36.571 199.068 31.884 203.755 26.122 203.755 z M 26.122 287.869 c -5.762 0 -10.449 -4.687 -10.449 -10.449 c 0 -5.762 4.687 -10.449 10.449 -10.449 s 10.449 4.687 10.449 10.449 C 36.571 283.182 31.884 287.869 26.122 287.869 z M 66.873 407.51 c -5.762 0 -10.449 -4.687 -10.449 -10.449 c 0 -5.762 4.687 -10.449 10.449 -10.449 s 10.449 4.687 10.449 10.449 C 77.322 402.823 72.635 407.51 66.873 407.51 z M 377.731 463.935 c -5.762 0 -10.449 -4.687 -10.449 -10.449 c 0 -5.762 4.687 -10.449 10.449 -10.449 s 10.449 4.687 10.449 10.449 C 388.18 459.247 383.492 463.935 377.731 463.935 z M 316.604 322.351 H 195.396 V 201.143 h 121.208 V 322.351 z M 485.878 401.241 c -5.762 0 -10.449 -4.687 -10.449 -10.449 c 0 -5.762 4.687 -10.449 10.449 -10.449 s 10.449 4.687 10.449 10.449 C 496.327 396.553 491.639 401.241 485.878 401.241 z" style="stroke: none; stroke-width: 1; stroke-dasharray: none; stroke-linecap: butt; stroke-linejoin: miter; stroke-miterlimit: 10; fill: rgb(0,0,0); fill-rule: nonzero; opacity: 1;" transform=" matrix(1 0 0 1 0 0) " stroke-linecap="round" />
</g>
<g style="stroke: none; stroke-width: 1; stroke-dasharray: none; stroke-linecap: butt; stroke-linejoin: miter; stroke-miterlimit: 10; fill: none; fill-rule: nonzero; opacity: 1;" transform="translate(405.70000000000005 37.599999999999994) rotate(123.17) scale(0.16 0.16)" >
  <rect x="240.97" y="253.76" rx="0" ry="0" width="176.49" height="25.3" style="stroke: none; stroke-width: 1; stroke-dasharray: none; stroke-linecap: butt; stroke-linejoin: miter; stroke-miterlimit: 10; fill: #44C4A1; fill-rule: nonzero; opacity: 1;" transform=" matrix(1 0 0 1 0 0) "/>
  <rect x="241.29" y="228.7" rx="0" ry="0" width="176.49" height="25.3" style="stroke: none; stroke-width: 1; stroke-dasharray: none; stroke-linecap: butt; stroke-linejoin: miter; stroke-miterlimit: 10; fill: #3EA69B; fill-rule: nonzero; opacity: 1;" transform=" matrix(1 0 0 1 0 0) "/>
  <rect x="241.01" y="203.7" rx="0" ry="0" width="176.49" height="25.3" style="stroke: none; stroke-width: 1; stroke-dasharray: none; stroke-linecap: butt; stroke-linejoin: miter; stroke-miterlimit: 10; fill: #31978C; fill-rule: nonzero; opacity: 1;" transform=" matrix(1 0 0 1 0 0) "/>
  <rect x="417.58" y="203.82" rx="0" ry="0" width="9.04" height="75.29" style="stroke: none; stroke-width: 1; stroke-dasharray: none; stroke-linecap: butt; stroke-linejoin: miter; stroke-miterlimit: 10; fill: #e56353; fill-rule: nonzero; opacity: 1;" transform=" matrix(1 0 0 1 0 0) "/>
  <path d="M 481.732 270.984 v -16.866 h -55.416 v 25.299 h 47.586 C 478.118 278.814 481.732 275.2 481.732 270.984 z" style="stroke: none; stroke-width: 1; stroke-dasharray: none; stroke-linecap: butt; stroke-linejoin: miter; stroke-miterlimit: 10; fill: #64798A; fill-rule: nonzero; opacity: 1;" transform=" matrix(1 0 0 1 0 0) " stroke-linecap="round" />
  <rect x="426.31" y="228.82" rx="0" ry="0" width="55.42" height="25.3" style="stroke: none; stroke-width: 1; stroke-dasharray: none; stroke-linecap: butt; stroke-linejoin: miter; stroke-miterlimit: 10; fill: #3A556A; fill-rule: nonzero; opacity: 1;" transform=" matrix(1 0 0 1 0 0) "/>
  <path d="M 481.732 228.819 v -16.866 c 0 -4.216 -3.614 -7.831 -7.831 -7.831 h -47.586 v 25.299 h 55.417 V 228.819 z" style="stroke: none; stroke-width: 1; stroke-dasharray: none; stroke-linecap: butt; stroke-linejoin: miter; stroke-miterlimit: 10; fill: #2F4859; fill-rule: nonzero; opacity: 1;" transform=" matrix(1 0 0 1 0 0) " stroke-linecap="round" />
  <path d="M 353.431 270.381 c 2.409 -9.035 3.614 -18.673 3.614 -28.913 s -1.205 -19.878 -3.614 -28.913 l 18.071 -15.661 c 3.012 -2.409 3.614 -6.626 1.807 -10.24 l -18.673 -32.527 c -1.807 -3.614 -6.024 -4.819 -9.638 -3.614 l -22.889 7.831 c -13.854 -13.252 -30.72 -23.492 -49.995 -28.913 l -4.819 -23.492 c -0.602 -3.614 -4.216 -6.626 -7.831 -6.626 h -37.346 c -3.614 0 -7.228 3.012 -7.831 6.626 l -4.819 23.492 c -19.275 5.421 -36.141 15.661 -49.995 28.913 l -22.889 -7.831 c -3.614 -1.205 -7.831 0.602 -9.638 3.614 l -18.673 31.925 c -1.807 3.614 -1.205 7.831 1.807 10.24 l 18.071 15.661 c -2.409 9.035 -3.614 18.673 -3.614 28.913 s 1.205 19.878 3.614 28.913 L 110.08 285.44 c -3.012 2.409 -3.614 6.626 -1.807 10.24 l 18.673 31.925 c 1.807 3.614 6.024 4.819 9.638 3.614 l 22.889 -7.831 c 13.854 13.252 30.72 23.492 49.995 28.913 l 4.819 23.492 c 0.602 3.614 4.216 6.626 7.831 6.626 h 37.346 c 3.614 0 7.228 -3.012 7.831 -6.626 l 4.819 -23.492 c 19.275 -5.421 36.141 -15.661 49.995 -28.913 l 22.889 7.831 c 3.614 1.205 7.831 -0.602 9.638 -3.614 l 18.673 -31.925 c 1.807 -3.614 1.205 -7.831 -1.807 -10.24 L 353.431 270.381 z M 240.791 317.967 c -42.165 0 -76.499 -34.334 -76.499 -76.499 s 34.334 -76.499 76.499 -76.499 s 76.499 34.334 76.499 76.499 S 282.955 317.967 240.791 317.967 z" style="stroke: none; stroke-width: 1; stroke-dasharray: none; stroke-linecap: butt; stroke-linejoin: miter; stroke-miterlimit: 10; fill: #e56353; fill-rule: nonzero; opacity: 1;" transform=" matrix(1 0 0 1 0 0) " stroke-linecap="round" />
  <path d="M 240.791 160.151 c -44.574 0 -81.318 36.141 -81.318 81.318 s 36.744 81.318 81.318 81.318 s 81.318 -36.141 81.318 -81.318 S 285.365 160.151 240.791 160.151 z M 240.791 307.125 c -36.141 0 -65.656 -29.515 -65.656 -65.656 s 29.515 -65.656 65.656 -65.656 s 65.656 29.515 65.656 65.656 S 276.932 307.125 240.791 307.125 z" style="stroke: none; stroke-width: 1; stroke-dasharray: none; stroke-linecap: butt; stroke-linejoin: miter; stroke-miterlimit: 10; fill: #D15241; fill-rule: nonzero; opacity: 1;" transform=" matrix(1 0 0 1 0 0) " stroke-linecap="round" />
  <rect x="64.64" y="253.88" rx="0" ry="0" width="176.49" height="25.3" style="stroke: none; stroke-width: 1; stroke-dasharray: none; stroke-linecap: butt; stroke-linejoin: miter; stroke-miterlimit: 10; fill: #44C4A1; fill-rule: nonzero; opacity: 1;" transform=" matrix(1 0 0 1 0 0) "/>
  <rect x="64.96" y="228.88" rx="0" ry="0" width="176.49" height="25.3" style="stroke: none; stroke-width: 1; stroke-dasharray: none; stroke-linecap: butt; stroke-linejoin: miter; stroke-miterlimit: 10; fill: #3EA69B; fill-rule: nonzero; opacity: 1;" transform=" matrix(1 0 0 1 0 0) "/>
  <rect x="64.67" y="203.88" rx="0" ry="0" width="176.49" height="25.3" style="stroke: none; stroke-width: 1; stroke-dasharray: none; stroke-linecap: butt; stroke-linejoin: miter; stroke-miterlimit: 10; fill: #31978C; fill-rule: nonzero; opacity: 1;" transform=" matrix(1 0 0 1 0 0) "/>
  <path d="M 64.904 204.122 l -42.165 22.889 c 3.614 3.614 6.024 9.035 6.024 14.456 s -2.409 10.842 -6.024 14.456 l 42.165 22.889 V 204.122 z" style="stroke: none; stroke-width: 1; stroke-dasharray: none; stroke-linecap: butt; stroke-linejoin: miter; stroke-miterlimit: 10; fill: #FCD462; fill-rule: nonzero; opacity: 1;" transform=" matrix(1 0 0 1 0 0) " stroke-linecap="round" />
  <path d="M 28.762 241.468 c 0 -5.421 -2.409 -10.842 -6.024 -14.456 l -20.48 10.842 c -3.012 1.205 -3.012 5.421 0 6.626 l 20.48 10.842 C 26.353 252.311 28.762 246.889 28.762 241.468 z" style="stroke: none; stroke-width: 1; stroke-dasharray: none; stroke-linecap: butt; stroke-linejoin: miter; stroke-miterlimit: 10; fill: #64798A; fill-rule: nonzero; opacity: 1;" transform=" matrix(1 0 0 1 0 0) " stroke-linecap="round" />
</g>
  <g transform="translate(245 60.63) scale(1.2 1.2)">
   <text font-family="Tiza" font-size="40" font-weight="normal" style="stroke: none; stroke-width: 1; stroke-dasharray: none; stroke-linecap: butt; stroke-linejoin: miter; stroke-miterlimit: 10; fill: #293257; fill-rule: nonzero; opacity: 1;" ><tspan x="-87.84" y="8.98" style="stroke: none; stroke-width: 0; stroke-dasharray: none; stroke-linecap: butt; stroke-linejoin: miter; stroke-miterlimit: 4; fill: #293257; fill-rule: ; opacity: 1;">A</tspan><tspan x="-40.36" y="8.98" style="stroke: none; stroke-width: 0; stroke-dasharray: none; stroke-linecap: butt; stroke-linejoin: miter; stroke-miterlimit: 4; fill: #293257; fill-rule: ; opacity: 1;">I</tspan><tspan x="-16.32" y="8.98" style="stroke: none; stroke-width: 0; stroke-dasharray: none; stroke-linecap: butt; stroke-linejoin: miter; stroke-miterlimit: 4; fill: #293257; fill-rule: ; opacity: 1;">U</tspan><tspan x="27" y="8.98" style="stroke: none; stroke-width: 0; stroke-dasharray: none; stroke-linecap: butt; stroke-linejoin: miter; stroke-miterlimit: 4; fill: #293257; fill-rule: ; opacity: 1;">B</tspan><tspan x="67.84" y="8.98" style="stroke: none; stroke-width: 0; stroke-dasharray: none; stroke-linecap: butt; stroke-linejoin: miter; stroke-miterlimit: 4; fill: #293257; fill-rule: ; opacity: 1;"> </tspan></text>
 </g>
  <g transform="translate(261.68 105.67) scale(1.03 1.03)">
   <text font-family="Tiza" font-size="40" font-weight="normal" style="stroke: none; stroke-width: 1; stroke-dasharray: none; stroke-linecap: butt; stroke-linejoin: miter; stroke-miterlimit: 10; fill: #378c1a; fill-rule: nonzero; opacity: 1;" ><tspan x="-115.7" y="8.98" style="stroke: none; stroke-width: 0; stroke-dasharray: none; stroke-linecap: butt; stroke-linejoin: miter; stroke-miterlimit: 4; fill: #378c1a; fill-rule: ; opacity: 1;">F</tspan><tspan x="-79.02" y="8.98" style="stroke: none; stroke-width: 0; stroke-dasharray: none; stroke-linecap: butt; stroke-linejoin: miter; stroke-miterlimit: 4; fill: #378c1a; fill-rule: ; opacity: 1;">o</tspan><tspan x="-42.06" y="8.98" style="stroke: none; stroke-width: 0; stroke-dasharray: none; stroke-linecap: butt; stroke-linejoin: miter; stroke-miterlimit: 4; fill: #378c1a; fill-rule: ; opacity: 1;">r</tspan><tspan x="-0.94" y="8.98" style="stroke: none; stroke-width: 0; stroke-dasharray: none; stroke-linecap: butt; stroke-linejoin: miter; stroke-miterlimit: 4; fill: #378c1a; fill-rule: ; opacity: 1;">u</tspan><tspan x="42.38" y="8.98" style="stroke: none; stroke-width: 0; stroke-dasharray: none; stroke-linecap: butt; stroke-linejoin: miter; stroke-miterlimit: 4; fill: #378c1a; fill-rule: ; opacity: 1;">m</tspan><tspan x="95.7" y="8.98" style="stroke: none; stroke-width: 0; stroke-dasharray: none; stroke-linecap: butt; stroke-linejoin: miter; stroke-miterlimit: 4; fill: #378c1a; fill-rule: ; opacity: 1;"> </tspan></text>
 </g>
</svg>